<svg id="Layer_1" data-name="Layer 1" xmlns="http://www.w3.org/2000/svg" viewBox="0 0 53.91 43.45">
  <defs>
    <style>
      .cls-1 {
        fill: #ffffff;
      }
    </style>
  </defs>
  <title>hammers-purple-01</title>
  <g id="Logo_Dark" data-name="Logo Dark">
    <g>
      <path class="cls-1" d="M47.29,40.36l-2.36,2.36a2.51,2.51,0,0,1-3.54,0L31.68,33a2.5,2.5,0,0,1,0-3.54L34,27.1a2.5,2.5,0,0,1,3.54,0l9.73,9.73A2.5,2.5,0,0,1,47.29,40.36Z"/>
      <path class="cls-1" d="M21.36,7.34a2.52,2.52,0,0,0,0,3.55l0.89,0.88a2.52,2.52,0,0,1,0,3.55l-2.36,2.35a2.49,2.49,0,0,1-3.53,0l-0.89-.88a2.5,2.5,0,0,0-3.54,0L9.58,19.14a2.5,2.5,0,0,1-3.54,0l-5.31-5.3a2.5,2.5,0,0,1,0-3.54L10,0.87A2.67,2.67,0,0,1,11.79,0H21.5a2.72,2.72,0,0,1,1.78.87l0.44,0.52a2.55,2.55,0,0,1,0,3.58Z"/>
      <path class="cls-1" d="M53.18,13.84l-5.31,5.3a2.5,2.5,0,0,1-3.54,0L42,16.78a2.5,2.5,0,0,0-3.53,0L12.53,42.72a2.51,2.51,0,0,1-3.55,0L6.63,40.36a2.5,2.5,0,0,1,0-3.53L32.56,10.89a2.5,2.5,0,0,0,0-3.54L30.2,5a2.5,2.5,0,0,1,0-3.53l0.44-.59A2.7,2.7,0,0,1,32.42,0h9.71a2.65,2.65,0,0,1,1.76.87l9.29,9.37A2.58,2.58,0,0,1,53.18,13.84Z"/>
    </g>
  </g>
</svg>
