<svg xmlns="http://www.w3.org/2000/svg" viewBox="0 0 800.13 336.97"><defs><style>.cls-1{fill:#fff;}</style></defs><title>Facebook Cover mlh</title><g id="Layer_2" data-name="Layer 2"><g id="Layer_1-2" data-name="Layer 1"><path class="cls-1" d="M242.4,0c1.54.34,3.07.7,4.62,1a44.19,44.19,0,0,1,34.4,35,37.55,37.55,0,0,1,.63,6.91q0,111.24,0,222.47c0,5.45-2.66,8.14-8.05,8.14H222.66c-5.3,0-7.72-2.41-7.73-7.79q0-22.68,0-45.36,0-77.16,0-154.31V62.58H172.16v3.25q0,99.48,0,199a16.59,16.59,0,0,1-.29,3.57,6.2,6.2,0,0,1-6.31,5.17q-24.36.05-48.72,0a6.71,6.71,0,0,1-6.84-7.09q0-22,0-43.92,0-78.36,0-156.71V62.56H67.14v3.12q0,99.84,0,199.67c0,6.32-1.84,8.18-8.12,8.18-17,0-34.08,0-51.12,0-3.75,0-6.55-1.05-7.9-4.78V4.8A7.71,7.71,0,0,1,4.8,0Z"/><path class="cls-1" d="M794.88,0l1.6,1a6.76,6.76,0,0,1,3.65,6.24q-.07,51.11,0,102.23,0,78,0,156c0,5.43-2.64,8.11-8,8.11H736.88c-5.18,0-8.16-3-8.17-8.21q0-20.16,0-40.32,0-24.24,0-48.47,0-7.62-7.69-7.64H641.58c-5.2,0-8,2.8-8,8q0,44,0,88.07c0,6.54-2,8.56-8.61,8.56H570.75c-6.14,0-8.19-2.06-8.19-8.2q0-128.39-.06-256.77c0-4,.95-7,4.86-8.57H628.8c3.81,1.65,4.87,4.64,4.85,8.64-.1,28.31-.05,56.63-.05,84.94,0,6.65,2.12,8.82,8.69,8.82h78c5.87,0,8.43-2.61,8.43-8.51,0-28.07.06-56.15-.06-84.22,0-4.62,1.42-7.89,5.76-9.67Z"/><path class="cls-1" d="M389.76,0C393.82,1.31,395,4.23,395,8.3c-.06,63.19,0,126.38-.13,189.58,0,6.82,3.58,9.41,9.49,9.4,35.84-.05,71.67.05,107.51-.1,6.22,0,8.78,3.36,8.76,8.77,0,16.24,0,32.48,0,48.71,0,6.36-2.55,8.88-8.85,8.88h-179c-6.8,0-8.76-1.93-8.76-8.63Q324,136.76,324,8.61c0-4,1-7,4.85-8.61Z"/><path class="cls-1" d="M0,294.72c12.47,0,24.95-.13,37.42-.06,4.5,0,7.15,3,7.15,7.55,0,10.64,0,21.28,0,31.91,0,2.06-.6,3-2.73,2.79-1.43-.12-2.88,0-4.32,0-3.48,0-3.48,0-3.48-3.37q0-12.84,0-25.67V305H27.33c0,.88-.13,1.8-.13,2.73,0,8.72-.07,17.44,0,26.15,0,2.27-.61,3.3-3,3a35.06,35.06,0,0,0-3.84,0c-2.93,0-3.06-.14-3.07-3.18q0-13,0-25.91c0-.87,0-1.74,0-2.81H10.67c0,.93-.11,1.78-.11,2.64,0,8.88-.07,17.76,0,26.63,0,2.17-.7,2.85-2.76,2.66-2.61-.24-5.23-.3-7.84-.44Z"/><path class="cls-1" d="M212.6,324.43l7.07,12.39c-4,0-7.44.11-10.82-.08-.72,0-1.57-1-2-1.8-1.72-2.88-3.4-5.79-4.91-8.78a3.43,3.43,0,0,0-3.58-2.08c-5.37.06-5.37,0-5.37,5.27,0,1.76-.1,3.53,0,5.28s-.66,2.4-2.39,2.3a45.49,45.49,0,0,0-5.76,0c-1.9.13-2.49-.56-2.47-2.46.08-10.72,0-21.44,0-32.16,0-1.84.07-3.68,0-5.52-.07-1.49.38-2.2,2-2.19,8.8.05,17.6,0,26.4.09,4.37.07,7,3,7.07,7.42s-.13,8.81,0,13.2C218.06,319.44,217,322.74,212.6,324.43Zm-20-20c0,3.16-.08,6,.08,8.89a2.19,2.19,0,0,0,1.61,1.38c3.75.13,7.52.11,11.27,0,.56,0,1.56-.74,1.58-1.17.14-3,.07-6,.07-9.11Z"/><path class="cls-1" d="M172.8,315.89c0,4.55,0,9.11,0,13.66,0,4.34-2.78,7.25-7.15,7.31q-10.55.14-21.09,0a6.91,6.91,0,0,1-7.17-7.12q-.14-14,0-28a6.75,6.75,0,0,1,7-7q10.78-.2,21.57,0c4.27.09,6.85,3,6.87,7.3C172.81,306.62,172.8,311.26,172.8,315.89Zm-10.72,10.52V305h-13.9v21.41Z"/><path class="cls-1" d="M54.13,318c0-5.19,0-10.39,0-15.58s2.63-7.72,7.66-7.78q10.07-.13,20.13,0c4.95.06,7.65,2.89,7.65,7.82,0,10.47,0,20.93,0,31.4,0,2.24-.58,3.3-3,3.07a35.07,35.07,0,0,0-5.27,0c-1.91.11-2.56-.77-2.52-2.57.06-2.79,0-5.59,0-8.39,0-1.67-.7-2.33-2.27-2.32q-4.79,0-9.59,0c-1.73,0-2.39.82-2.33,2.54.09,2.87,0,5.75,0,8.63,0,1.55-.55,2.17-2.1,2.11-2.07-.07-4.16-.12-6.23,0-1.85.12-2.34-.69-2.32-2.39C54.17,329,54.13,323.51,54.13,318Zm24.59-13.87H64.89v10.49H78.72Z"/><path class="cls-1" d="M602.4,318c0,5.44-.08,10.88,0,16.32,0,2-.7,2.73-2.65,2.6a34.9,34.9,0,0,0-5,0c-2.15.17-3.09-.55-2.95-2.84.16-2.55,0-5.12.06-7.68.08-1.92-.59-2.83-2.59-2.79-3,.06-6.08.06-9.12,0-2,0-2.69.9-2.63,2.8.08,2.8,0,5.6,0,8.4,0,1.54-.54,2.17-2.11,2.1-2.16-.09-4.32-.06-6.48,0-1.42,0-2-.56-2-2,0-11.12-.06-22.24.08-33.36a6.6,6.6,0,0,1,6.86-6.87q10.79-.21,21.6,0c4.31.08,6.9,3,6.92,7.24C602.41,307.28,602.4,312.64,602.4,318Zm-10.69-14c-4.42,0-8.64,0-12.86.06a1.83,1.83,0,0,0-1.22,1.3c-.12,2.63-.12,5.28,0,7.91,0,.51.7,1.42,1.09,1.43,4.29.1,8.58.06,13,.06Z"/><path class="cls-1" d="M325,318.16c0-5.35,0-10.71,0-16.06,0-4.43,2.61-7.34,7-7.43q10.66-.21,21.33,0c4.37.08,7.07,3,7.09,7.39.05,10.79,0,21.57,0,32.36,0,1.89-.71,2.59-2.56,2.51-2-.09-4-.06-6,0-1.54,0-2.16-.67-2.15-2.17,0-2.88-.05-5.75,0-8.63,0-1.73-.67-2.5-2.39-2.48q-4.67,0-9.35,0c-1.79,0-2.63.74-2.59,2.59.07,2.87-.05,5.75,0,8.63.05,1.59-.57,2.13-2.1,2.06-2.07-.08-4.16-.09-6.23,0-1.66.08-2.24-.54-2.22-2.22C325.07,329.19,325,323.67,325,318.16Zm17.46-3.39c1.84,0,3.68,0,5.52,0,1.35,0,1.85-.51,1.82-1.84q-.09-3.6,0-7.2c0-1.36-.53-1.82-1.85-1.8-3.6.05-7.2,0-10.8,0-1.23,0-1.7.48-1.67,1.71q.09,3.72,0,7.44c0,1.27.51,1.71,1.71,1.67C339,314.73,340.73,314.76,342.49,314.76Z"/><path class="cls-1" d="M557.39,315.74c0,6.15-.07,12.31,0,18.46,0,2.13-.75,2.88-2.81,2.72a32.3,32.3,0,0,0-5,0c-2.26.18-2.93-.8-2.84-2.95.14-3.59,0-7.19.06-10.79,0-1.83-.57-2.63-2.47-2.58-3.19.09-6.39.06-9.59,0-1.53,0-2.15.61-2.13,2.15.06,3.92,0,7.83,0,11.75,0,1.71-.53,2.51-2.36,2.4-2.07-.12-4.16-.09-6.23,0-1.53.06-2.17-.51-2.16-2.08q0-19.06,0-38.12c0-1.56.58-2.16,2.11-2.12,2.16.06,4.32.07,6.47,0,1.71-.06,2.2.76,2.17,2.34-.06,3.76,0,7.51,0,11.27,0,1.65.51,2.31,2.19,2.27,3.19-.08,6.39-.06,9.59,0,1.7,0,2.46-.61,2.42-2.4-.09-3.67,0-7.35-.05-11,0-1.74.56-2.5,2.34-2.43,2,.08,4,.08,6,0,1.8-.08,2.35.74,2.33,2.45C557.35,303.27,557.39,309.51,557.39,315.74Z"/><path class="cls-1" d="M370,315.8c0-4.64,0-9.28,0-13.91.06-4.35,2.6-7.12,7-7.2,8-.15,16,0,24-.09,1.53,0,2.17.63,2.12,2.16-.06,1.92-.08,3.84,0,5.76s-.74,2.33-2.45,2.31c-5.76-.07-11.51,0-17.27-.06-2,0-2.85.59-2.8,2.75.12,5.59.08,11.19,0,16.79,0,1.64.52,2.32,2.2,2.28,3.28-.08,6.56-.06,9.83,0,1.52,0,2.18-.56,2.15-2.11-.06-2.8,0-5.6,0-8.39,0-1.65.63-2.32,2.26-2.27,2.08.06,4.16,0,6.24,0,1.47,0,2.24.53,2.24,2.09,0,4.72.13,9.44-.06,14.15a6.91,6.91,0,0,1-7.22,6.83q-10.43.12-20.87,0c-4.53,0-7.25-2.85-7.31-7.4S370,320.36,370,315.8Z"/><path class="cls-1" d="M719.89,315.71c0-6.16.06-12.32,0-18.47,0-1.92.49-2.69,2.54-2.67,8.32.09,16.63,0,24.95.06,5.37,0,8,2.81,8,8.24q0,15.47,0,30.95c0,2.93-.17,3.08-3.15,3.09-1.6,0-3.21-.1-4.8,0-2.14.18-2.8-.79-2.79-2.81.06-8.72,0-17.43,0-26.15,0-3.15,0-3.16-3.26-3.17-2.8,0-5.6.06-8.4,0-1.84-.05-2.54.63-2.52,2.53.07,9,0,17.91.07,26.87,0,2.06-.57,2.94-2.72,2.76a41.41,41.41,0,0,0-5.75,0c-1.73.1-2.21-.66-2.2-2.26C719.92,328.34,719.89,322,719.89,315.71Z"/><path class="cls-1" d="M764.7,315.73c0-4.32,0-8.63,0-13,0-5.31,2.64-8.09,7.86-8.14,7.59-.07,15.19,0,22.79,0,1.84,0,2.64.62,2.54,2.51s-.07,3.68,0,5.51c.06,1.65-.64,2.23-2.29,2.21-5.84-.07-11.67,0-17.51-.06-2.11,0-2.83.77-2.8,2.81.08,5.44.07,10.87,0,16.31,0,1.87.52,2.8,2.59,2.71,3.19-.13,6.4-.08,9.59,0,1.54,0,2.17-.6,2.14-2.13-.05-2.8,0-5.6,0-8.39,0-1.48.44-2.27,2-2.24,2.24,0,4.48,0,6.72,0,1.31,0,1.81.58,1.79,1.91-.05,5,.05,9.92,0,14.87a6.56,6.56,0,0,1-6.68,6.25c-7.27.14-14.55.15-21.82,0-4.13-.09-6.78-3.11-6.85-7.44C764.65,324.84,764.7,320.28,764.7,315.73Z"/><path class="cls-1" d="M449.87,313.44c0,5.27,0,10.55,0,15.82,0,4.83-2.74,7.59-7.57,7.62-6.63,0-13.27,0-19.9,0-5,0-7.9-2.64-7.95-7.58-.12-10.87,0-21.74-.05-32.6,0-1.55.64-2.15,2.15-2.11,2,.06,4,.1,6,0s2.65.57,2.63,2.6c-.1,8.71,0,17.42,0,26.13,0,3.24,0,3.24,3.14,3.25,2.72,0,5.44-.1,8.15,0,2.13.11,2.94-.51,2.91-2.81-.13-8.79,0-17.58-.09-26.37,0-2,.58-3,2.72-2.83a43.59,43.59,0,0,0,5.51,0c1.93-.12,2.47.73,2.44,2.55C449.82,302.57,449.87,308,449.87,313.44Z"/><path class="cls-1" d="M470,311.58c5.62,0,10.81.09,16,0,2.12-.05,2.81.66,2.75,2.74-.18,6.51.75,5.41-5.43,5.5-3.6.05-7.2.08-10.8,0-1.78,0-2.61.4-2.56,2.4.16,5.9-.49,4.79,4.82,4.86,4.8.06,9.6.09,14.4,0,2,0,2.69.7,2.65,2.66-.17,8.62,1.09,7.13-7,7.21-7.6.08-15.2,0-22.8.05-2,0-2.63-.62-2.61-2.62q.11-18.48,0-37c0-2.08.64-2.81,2.75-2.79q13.44.13,26.88,0c2.1,0,2.77.74,2.77,2.8,0,6.94.07,6.94-6.88,6.94-4.24,0-8.48.06-12.72,0-1.64,0-2.36.48-2.26,2.18S470,309.63,470,311.58Z"/><path class="cls-1" d="M293.76,311.58c5.47,0,10.57.1,15.67,0,2.3-.07,3.12.63,3,3-.23,6,.84,5.21-5.21,5.26-3.76,0-7.52.06-11.28,0-1.6,0-2.25.42-2.26,2.16,0,5.11-.1,5.11,5,5.11,4.72,0,9.44.06,14.16,0,1.84,0,2.51.55,2.53,2.47.05,7.42.11,7.42-7.18,7.42-7.52,0-15,0-22.55,0-1.85,0-2.51-.5-2.5-2.44q.11-18.71,0-37.43c0-1.93.73-2.49,2.54-2.48,9,.05,18.08.07,27.11,0,2,0,2.58.71,2.58,2.66,0,7.08,0,7.08-6.92,7.08-4.24,0-8.48,0-12.72,0-1.38,0-2.1.35-2,1.88S293.76,309.51,293.76,311.58Z"/><path class="cls-1" d="M670.3,319.18c-1.9,2.09-3.62,3.77-5,5.66a5.94,5.94,0,0,0-.89,3.13c-.13,2.39.07,4.81-.12,7.19a2.39,2.39,0,0,1-1.62,1.65c-2.3.2-4.63.05-7,.09-1.3,0-1.86-.47-1.86-1.83q0-19.32,0-38.64c0-1.39.58-1.84,1.85-1.83,2.16,0,4.32.06,6.48,0,1.63-.06,2.25.52,2.22,2.22-.09,5.35,0,10.7,0,16.05l1,.84a6.92,6.92,0,0,1,.8-2c4.22-5,8.56-9.94,12.72-15a5.4,5.4,0,0,1,4.75-2.15c2.84.09,5.68,0,9.16,0-.92,1.2-1.4,1.88-1.94,2.52-4,4.7-7.94,9.42-12,14.05a2.19,2.19,0,0,0-.21,3.11c4,6.44,8,12.92,11.93,19.4.52.85.89,1.77,1.55,3.1-4,0-7.57.12-11.1-.1-.75,0-1.61-1.21-2.09-2.05C676,329.64,673.29,324.59,670.3,319.18Z"/><path class="cls-1" d="M611.89,315.75c0-4.48,0-9,0-13.44.06-4.92,2.64-7.61,7.54-7.67,7.44-.1,14.88,0,22.32,0,1.7,0,2.53.54,2.42,2.36a50.23,50.23,0,0,0,0,5.52c.09,1.78-.64,2.38-2.39,2.36-5.52-.08-11,0-16.56-.06-2.09,0-2.81.7-2.77,2.79.11,5.52.1,11,0,16.56,0,1.93.71,2.5,2.53,2.48,5.44-.07,10.88,0,16.32-.06,2.22,0,3,.75,2.87,2.95-.15,1.83.14,3.7-.12,5.5-.1.71-1.17,1.82-1.82,1.83-7.92.12-15.84.19-23.75,0-3.87-.09-6.45-2.94-6.55-6.91-.12-4.72,0-9.44,0-14.16Z"/><path class="cls-1" d="M95.86,315.85c3.08,0,6-.08,8.82.07a2.18,2.18,0,0,1,1.44,1.55c.17,2.31.09,4.63.08,7,0,1.46.58,2.21,2.15,2.15,2.16-.07,4.32-.1,6.48,0,1.9.1,2.5-.67,2.48-2.52-.07-8.64,0-17.28,0-25.92,0-3.53,0-3.53,3.63-3.54,1.68,0,3.36,0,5,0,1.41,0,2,.64,2,2,0,11.12.09,22.24-.09,33.36-.07,4.23-3.14,6.84-7.41,6.88q-8.64.09-17.28,0c-4.76,0-7.51-2.92-7.53-7.71q0-5.4,0-10.8C95.69,317.6,95.79,316.82,95.86,315.85Z"/><path class="cls-1" d="M249,315.84c0-6.16.1-12.32-.05-18.48-.06-2.3.77-3,2.89-2.78a26.09,26.09,0,0,0,4.79,0c2.39-.25,3,.79,2.92,3-.11,8.48,0,17,0,25.44,0,3.51,0,3.51,3.62,3.51s7.52.09,11.28,0c2.24-.08,3,.82,2.88,3-.12,1.75,0,3.52,0,5.28,0,1.49-.69,2.14-2.21,2.13-8,0-16-.06-24,0-1.85,0-2.08-.88-2.07-2.37C249,328.32,249,322.08,249,315.84Z"/><path class="cls-1" d="M710.34,315.87c0,6.16-.07,12.32,0,18.48,0,2-.68,2.7-2.64,2.58a59.64,59.64,0,0,0-6,0c-1.45.05-2-.57-2-2q0-19.2,0-38.39c0-1.47.65-2,2-1.94,2.16,0,4.32.07,6.48,0,1.73-.07,2.15.73,2.13,2.33C710.3,303.24,710.34,309.56,710.34,315.87Z"/></g></g></svg>
