<svg xmlns="http://www.w3.org/2000/svg" viewBox="0 0 1697.24 437.04"><defs><style>.cls-1{fill:#fff;}</style></defs><title>sfab</title><g id="Layer_2" data-name="Layer 2"><g id="Layer_1-2" data-name="Layer 1"><path class="cls-1" d="M918.12,433.65V4.33c1.39-.07,2.61-.18,3.82-.18,54.25,0,108.5-.17,162.74.08,24.92.11,48.57,5.75,69.79,19.38,26.17,16.81,41,41.4,47.61,71.27,4.51,20.43,5.71,41,1,61.68a106.33,106.33,0,0,1-28.17,51.18c-1.73,1.78-3.63,3.41-5.18,4.87,5.8,5.69,11.68,10.78,16.76,16.57,14.15,16.13,21.29,35.41,23.63,56.48,3,26.87.58,53.21-10.14,78.28-16,37.39-44.72,59.23-84.24,66.92a166.83,166.83,0,0,1-30.9,2.69c-53.87.26-107.74.12-161.62.12ZM1023.58,328a13.46,13.46,0,0,0,1.67.23c18.74,0,37.48.13,56.22-.07a21.79,21.79,0,0,0,16.41-7c7-7.71,8.19-17.11,7.53-27-1.07-16.16-10.82-25.25-27-25.27q-25.49,0-51,0c-1.22,0-2.43.11-3.87.18Zm0-218.75v53.85a4.49,4.49,0,0,0,1.22.43c18.21-.1,36.45.23,54.64-.52,10-.41,17.17-6.33,19.38-16.38a48.63,48.63,0,0,0,.82-17c-1.84-12.81-9.6-19.41-22.54-20.27-4.1-.27-8.23-.13-12.35-.13C1051.13,109.26,1037.55,109.26,1023.56,109.26Z"/><path class="cls-1" d="M902.26,433.45c-1.63.08-2.84.19-4.05.19-34.12,0-68.24,0-102.37.07-3.14,0-4.55-.83-5.39-4-4.9-18.19-10.09-36.3-15-54.47-.73-2.69-1.81-3.71-4.78-3.7q-48.75.19-97.49,0c-3.16,0-4.2,1.08-5,3.91-5.36,18.45-10.94,36.83-16.35,55.27-.57,1.93-1.15,3-3.43,3q-52.68-.1-105.37,0c-.7,0-1.41-.15-2.58-.29,1.69-5.26,3.25-10.21,4.87-15.15Q596.32,262.27,647.4,106.34q16.13-49.25,32.14-98.53c.93-2.87,2.23-3.77,5.26-3.75q36.75.21,73.49,0c2.74,0,3.84.89,4.67,3.43q51.6,157.93,103.33,315.82,17.7,54.06,35.37,108.13C901.81,431.92,901.94,432.4,902.26,433.45ZM746.21,272.54l-22.41-78.79-.71.1L699.2,272.76h44.94C744.72,272.75,745.31,272.63,746.21,272.54Z"/><path class="cls-1" d="M298.76,57.11,232,131.29c-1.79-1.92-3.48-3.67-5.1-5.49-11.91-13.41-27.18-20-44.7-21.7-11.32-1.07-22.71-1.71-34,.72-14.33,3.09-24,13.42-25.5,26.89-1.3,11.65,4.32,21.34,16,25.36,7,2.41,14.54,3.36,21.89,4.67,20.25,3.61,40.88,5.23,60.68,11.27,16.17,4.93,31.17,12.08,44,23.36,16.81,14.82,27,33.57,31.88,55.18,6.54,28.87,8,58,.21,86.8-11.27,41.63-38.26,69.52-77.64,85.9-20.89,8.69-42.81,12.5-65.38,12.77-25.58.3-50.89-1.63-75.6-8.85C47.55,419.08,22,401.59,1.16,376.88c-.4-.47-.71-1-1.16-1.69L67.68,300a13.46,13.46,0,0,1,1.6,1.4c13.43,16.76,31.92,24.31,52.21,28.22,16.65,3.22,33.47,4.21,50.25.84a52.94,52.94,0,0,0,11-3.58c9.18-4.08,14.66-11.09,15.32-21.3a60,60,0,0,0-.36-11.95c-1.5-10.89-8.31-17.2-18.69-19.28-12.11-2.42-24.34-4.26-36.56-6.08-19.53-2.91-39-6.1-57.19-14.24-34.8-15.53-55-42.48-61.95-79.55-5.25-28.14-5.05-56.26,4.14-83.66,15.43-46,47.64-74.43,94.33-85.34,41.63-9.72,82.91-6.6,122.66,10C265,24.06,285.25,39.92,298.76,57.11Z"/><path class="cls-1" d="M568.83,168V272.91H430.13v160.4H324.87V4.34H592.21V108.59H430.38V168Z"/><path class="cls-1" d="M1560.13,346.68c0,2.35,0,3.67,0,5q0,24.37,0,48.73c0,18.62-14.74,34.08-32.62,34.35-19.91.31-35.59-13.92-35.79-33.45-.34-33-.1-66-.1-99a9.52,9.52,0,0,1,.17-1.34c39.56-8,63.21-31.57,71-71.62h3.39q48.17,0,96.34,0c17.9,0,32.26,12.81,34.48,30.65,2.1,16.85-9.42,33.07-26.5,37a46,46,0,0,1-10,1c-15.49.1-31,0-46.48,0H1610l-.6,1c1.9,1.72,3.87,3.37,5.69,5.18q35.55,35.49,71.06,71c13.73,13.73,14,35.22.68,48.84a34.3,34.3,0,0,1-48.79,0q-37.12-36.83-74.09-73.81C1563,349.33,1561.9,348.36,1560.13,346.68Z"/><path class="cls-1" d="M1352.87,140.24q-18.42-18.37-36.84-36.73-19.89-19.87-39.75-39.76c-13.89-14-14.11-35.53-.56-49.08s35.17-13.31,49.12.59q36.79,36.64,73.42,73.43a26.46,26.46,0,0,1,2.43,3.32l1.24-.58c.07-1.25.2-2.5.2-3.75,0-16.24-.05-32.49,0-48.73.07-16.71,11.49-30.84,27.29-33.95,16.48-3.24,32.35,5,38.65,20.55a32.21,32.21,0,0,1,2.52,11.61c.19,33.24.11,66.48.1,99.71a10.82,10.82,0,0,1-.15,1.21c-39.49,7.94-63.24,31.57-70.93,71.52-.89,0-2,.16-3.09.16-32,0-64,.06-96,0-17.95,0-32-11.8-34.86-28.93A34.18,34.18,0,0,1,1299,141.16c16.24-.12,32.49,0,48.73,0h4.8Z"/><path class="cls-1" d="M1559.68,93.29c1.87-1.51,2.85-2.17,3.67-3q37.91-37.9,75.79-75.82C1649,4.6,1665.08,2.32,1678,8.91c12.5,6.36,20,21.11,17.84,34.7-1.31,8.37-5.19,15.15-11.16,21.08-22.69,22.54-45.23,45.23-67.88,67.8-2.63,2.62-5.66,4.85-8.51,7.26l.9,1.59c1.23.11,2.47.31,3.7.31,16.5,0,33,.35,49.49-.07,17.72-.45,33.15,14.11,34.12,31.54,1,18.31-11.57,33.52-30,35.83a63.78,63.78,0,0,1-7.84.52c-30.62,0-61.24,0-91.85.08-2.92,0-4-.79-4.59-3.81-6.6-33.09-26.22-54.67-58.21-65.1a62.34,62.34,0,0,0-9.46-2.18c-2.11-.34-2.63-1.37-2.61-3.28.07-5.62,0-11.25,0-16.87q0-38.8,0-77.61c0-19.71,12.38-34.36,31.88-36,19-1.57,35.43,13.75,35.75,32.49.29,16.87.06,33.74.06,50.61Z"/><path class="cls-1" d="M1401.57,346.68c-1.06,1-2.17,1.89-3.19,2.91q-36.83,36.85-73.65,73.71c-17.42,17.43-45.57,12.65-55.64-9.44-5.81-12.73-2.65-28.16,7.55-38.32q37.44-37.28,74.73-74.72c.68-.68,1.26-1.46,2.41-2.8-2.06-.19-3.46-.42-4.87-.42-17.37-.1-34.74.13-52.1-.34-15.22-.41-28.4-13.37-30.69-28.53-3.23-21.44,14.6-39.18,34-38.89,31.36.47,62.73.19,94.09.05,3.88,0,5.39,1,6.29,5,7.56,34,28.36,55.51,62,64.58,7.85,2.12,7.9,1.94,7.9,10.11,0,30.24.05,60.48,0,90.72a34.24,34.24,0,0,1-34.45,34.16c-18.11-.2-32.95-15.17-33.18-33.82-.2-16.12,0-32.24,0-48.36q0-2.57,0-5.15Z"/><circle class="cls-1" cx="1482.25" cy="219.3" r="63.38"/></g></g></svg>