<svg xmlns="http://www.w3.org/2000/svg" xmlns:xlink="http://www.w3.org/1999/xlink" viewBox="0 0 425.38 427.86">
  <defs>
    <style>
      .cls-1, .cls-10, .cls-6 {
        fill: none;
      }

      .cls-2 {
        isolation: isolate;
      }

      .cls-3 {
        clip-path: url(#clip-path);
      }

      .cls-4 {
        fill: #383051;
      }

      .cls-5 {
        fill: #fff;
      }

      .cls-10, .cls-6 {
        stroke-miterlimit: 10;
      }

      .cls-6 {
        stroke-width: 39.44px;
        stroke: url(#radial-gradient);
      }

      .cls-7 {
        fill: #4b3d6b;
      }

      .cls-8 {
        fill: #3cbfd0;
      }

      .cls-9 {
        fill: #61e9ff;
      }

      .cls-10 {
        stroke-width: 23.67px;
        stroke: url(#radial-gradient-2);
      }

      .cls-11 {
        fill: #231f20;
        opacity: 0.1;
        mix-blend-mode: multiply;
      }
    </style>
    <clipPath id="clip-path">
      <path class="cls-1" d="M422.09,126.7l-13.19,40.87a66.91,66.91,0,0,0-1,37.75l11.3,42.45A139,139,0,0,1,353.69,404.3l-8.76,5a141.63,141.63,0,0,1-159.07-12.86h0a66.91,66.91,0,0,0-60-12.4l-41,11.41C37,408.78-8.22,367,1.27,318.22l18.41-94.73a66.91,66.91,0,0,0-3.61-37.75L6.95,163.1c-18.45-45.83,17.42-95.16,66.7-91.73l59.94,4.16a66.91,66.91,0,0,0,63.88-35.65l2.13-4.05C220.39-3.78,273.44-12.23,305.5,19L307,20.39A66.91,66.91,0,0,0,356,39.29h0C402.4,37.63,436.35,82.53,422.09,126.7Z"/>
    </clipPath>
    <radialGradient id="radial-gradient" cx="283.92" cy="348.37" r="171.8" gradientUnits="userSpaceOnUse">
      <stop offset="0" stop-color="#61e9ff"/>
      <stop offset="0.12" stop-color="#60e4fa"/>
      <stop offset="0.27" stop-color="#5dd5ec"/>
      <stop offset="0.43" stop-color="#57bdd5"/>
      <stop offset="0.61" stop-color="#509ab5"/>
      <stop offset="0.79" stop-color="#466e8c"/>
      <stop offset="0.97" stop-color="#3a395a"/>
      <stop offset="1" stop-color="#383051"/>
    </radialGradient>
    <radialGradient id="radial-gradient-2" cx="123.97" cy="162.05" r="43.57" gradientUnits="userSpaceOnUse">
      <stop offset="0" stop-color="#fffefe"/>
      <stop offset="0.1" stop-color="#f4f3f5"/>
      <stop offset="0.28" stop-color="#d7d5db"/>
      <stop offset="0.52" stop-color="#a8a4b2"/>
      <stop offset="0.81" stop-color="#67617a"/>
      <stop offset="1" stop-color="#383051"/>
    </radialGradient>
  </defs>
  <title>spaceblob</title>
  <g class="cls-2">
    <g id="Layer_1" data-name="Layer 1">
      <g class="cls-3">
        <rect class="cls-4" x="-79.61" y="-58.99" width="584.35" height="542.32"/>
        <circle class="cls-5" cx="176.87" cy="209.28" r="3.54" transform="translate(-74.17 99.46) rotate(-26.17)"/>
        <circle class="cls-5" cx="92.2" cy="316.18" r="5.35" transform="translate(-130 73.08) rotate(-26.17)"/>
        <circle class="cls-5" cx="381.27" cy="165.3" r="4.1" transform="translate(-33.82 185.1) rotate(-26.17)"/>
        <circle class="cls-5" cx="96.72" cy="252.64" r="1.57" transform="translate(-101.51 68.56) rotate(-26.17)"/>
        <circle class="cls-5" cx="57.6" cy="126.1" r="1.57" transform="translate(-49.71 38.33) rotate(-26.17)"/>
        <circle class="cls-5" cx="197.38" cy="101.02" r="1.57" transform="translate(-24.32 97.41) rotate(-26.17)"/>
        <circle class="cls-5" cx="51.76" cy="291.76" r="1.57" transform="translate(-123.37 52.74) rotate(-26.17)"/>
        <circle class="cls-5" cx="283.08" cy="149.88" r="1.57" transform="translate(-37.09 140.21) rotate(-26.17)"/>
        <circle class="cls-5" cx="262.93" cy="40.9" r="1.57" transform="translate(8.91 120.16) rotate(-26.17)"/>
        <circle class="cls-5" cx="304.02" cy="120.97" r="1.57" transform="translate(-22.18 146.49) rotate(-26.17)"/>
        <circle class="cls-5" cx="346.71" cy="70.13" r="1.57" transform="translate(4.61 160.1) rotate(-26.17)"/>
        <circle class="cls-5" cx="358.29" cy="120.13" r="2.98" transform="translate(-16.25 170.33) rotate(-26.17)"/>
        <g>
          <path class="cls-6" d="M338.59,459a5,5,0,0,0,6.47,2.75l55.32-22.57a5,5,0,0,1,5,.74A152.08,152.08,0,0,0,285.07,196.31h-1.16a151.69,151.69,0,0,0-113.49,50.87l-0.21.08a152.11,152.11,0,0,0,58.91,242.86l0.08,0.2a152.3,152.3,0,0,0,147.25-21.24,5,5,0,0,1,0-9.21l18.61-7.7a152.88,152.88,0,0,0,10.29-12.24,5,5,0,0,0-5-.74l-55.32,22.57a5,5,0,0,1-6.72-5.65A5,5,0,0,0,338.59,459Z"/>
          <g>
            <g>
              <path class="cls-7" d="M259.1,208.35a4.86,4.86,0,0,0,2.92,9.24l36.8-15a4.86,4.86,0,1,1,3.64,9l-50.82,20.8a4.86,4.86,0,0,0,4.82,8.33L288,228l22.54-9.36a4.86,4.86,0,0,1,3.64,9l-22.52,9.39-4.51,1.82a4.86,4.86,0,1,0,3.64,9l4.51-1.82,35.79-14.81a4.86,4.86,0,0,1,4.4,8.62l-54.6,22.42a4.86,4.86,0,1,0,3.64,9l36.07-14.78a4.86,4.86,0,0,1,3.64,9L274.7,285.87a4.86,4.86,0,1,0,3.64,9l31.56-12.71,22.54-9.36a4.86,4.86,0,1,1,3.64,9l-22.52,9.39L309.05,293a4.86,4.86,0,0,0,3.64,9l4.51-1.82L353,285.42a4.86,4.86,0,0,1,4.4,8.62l-54.6,22.42a4.86,4.86,0,1,0,3.64,9l36.07-14.78a4.86,4.86,0,0,1,3.64,9L296.65,340a4.86,4.86,0,0,0,3.64,9L354.39,327a4.86,4.86,0,1,1,3.64,9l-22.52,9.39L331,347.2a4.86,4.86,0,0,0,3.64,9l4.51-1.82,37.26-14.32c2.49-1,3.85-.3,4.86,2.19a4.86,4.86,0,0,1-1.93,5.94l-54.6,22.42a4.86,4.86,0,0,0,2.92,9.24l27.48-11.1a4.87,4.87,0,0,1,.85-0.25l8.47-3.65a4.86,4.86,0,1,1,3.64,9l-27.85,11.5c-0.22.11-.45,0.22-0.68,0.32l-22.29,9a4.86,4.86,0,0,0,4.82,8.33l31.56-12.71,22.54-9.36a4.86,4.86,0,0,1,3.64,9l-22.52,9.39-4.51,1.82a4.86,4.86,0,0,0,3.64,9l4.51-1.82,35.79-14.81a4.86,4.86,0,0,1,4.4,8.62l-54.6,22.42a4.86,4.86,0,1,0,3.64,9l36.07-14.78a4.86,4.86,0,1,1,3.64,9l-49.56,20.33a4.86,4.86,0,0,0,3.64,9l54.1-22.07a4.86,4.86,0,0,1,4.87.72A148.72,148.72,0,0,0,285.31,197.59Z"/>
              <path class="cls-7" d="M199.67,404.4L151,280.15a148.83,148.83,0,0,0,79.73,204.94Z"/>
            </g>
            <path class="cls-8" d="M398.07,435.09L344,457.16a4.86,4.86,0,0,1-3.64-9l49.56-20.33a4.86,4.86,0,1,0-3.64-9l-36.07,14.78a4.86,4.86,0,1,1-3.64-9l54.6-22.42a4.86,4.86,0,0,0-4.4-8.62l-35.79,14.81-4.51,1.82a4.86,4.86,0,0,1-3.64-9l27-11.21a4.86,4.86,0,0,0-3.64-9L322.09,403a4.86,4.86,0,0,1-4.82-8.33l50.82-20.8a4.86,4.86,0,1,0-3.64-9l-36.8,15a4.86,4.86,0,0,1-2.92-9.24l54.6-22.42a4.86,4.86,0,0,0-4.4-8.62L339.15,354.4l-4.51,1.82a4.86,4.86,0,0,1-3.64-9L358,336a4.86,4.86,0,1,0-3.64-9L300.29,349a4.86,4.86,0,0,1-3.64-9l49.5-20.32a4.86,4.86,0,0,0-3.64-9l-36.07,14.78a4.86,4.86,0,1,1-3.64-9l54.6-22.42a4.86,4.86,0,0,0-4.4-8.62L317.2,300.24l-4.51,1.82a4.86,4.86,0,0,1-3.64-9l27-11.21a4.86,4.86,0,1,0-3.64-9l-22.54,9.36-31.56,12.71a4.86,4.86,0,1,1-3.64-9l49.56-20.33a4.86,4.86,0,0,0-3.64-9l-36.07,14.78a4.86,4.86,0,1,1-3.64-9l54.6-22.42a4.86,4.86,0,0,0-4.4-8.62l-35.79,14.81-4.51,1.82a4.86,4.86,0,1,1-3.64-9l4.51-1.82,22.52-9.39a4.86,4.86,0,0,0-3.64-9L288,228l-31.56,12.71a4.86,4.86,0,0,1-4.82-8.33l50.82-20.8a4.86,4.86,0,1,0-3.64-9l-36.8,15a4.86,4.86,0,0,1-2.92-9.24l26.21-10.76h-1.13A148.71,148.71,0,0,0,151,280.15l48.72,124.26,31,80.69a148.93,148.93,0,0,0,144-20.77,4.86,4.86,0,0,1,0-9l18.2-7.53a149.5,149.5,0,0,0,10.06-12A4.86,4.86,0,0,0,398.07,435.09Z"/>
            <g>
              <path class="cls-9" d="M285.55,494.85a4.86,4.86,0,0,1-1-9.28l27-11.21a4.86,4.86,0,1,0-3.64-9l-22.54,9.36-31.56,12.71a4.86,4.86,0,0,1-3.64-9l49.56-20.33a4.86,4.86,0,0,0-3.64-9l-36.07,14.78a4.86,4.86,0,1,1-3.64-9L311,432.4a4.86,4.86,0,0,0-4.4-8.62L270.86,438.6l-4.51,1.82a4.86,4.86,0,1,1-3.64-9l27-11.21a4.86,4.86,0,0,0-3.64-9L232,433.24a4.86,4.86,0,0,1-4.82-8.33L278,404.12a4.86,4.86,0,1,0-3.64-9l-8.47,3.65a4.87,4.87,0,0,0-.85.25l-27.48,11.1a4.86,4.86,0,0,1-2.92-9.24l54.6-22.42a4.86,4.86,0,0,0-4.4-8.62l-40.29,16.64a4.86,4.86,0,0,1-3.64-9l27-11.21a4.86,4.86,0,1,0-3.64-9l-22.54,9.36L210.2,379.3a4.86,4.86,0,0,1-3.64-9L256.06,350a4.86,4.86,0,0,0-3.64-9l-36.07,14.78a4.86,4.86,0,1,1-3.64-9l54.6-22.42a4.86,4.86,0,0,0-4.4-8.62l-40.29,16.64a4.86,4.86,0,0,1-3.64-9l27-11.21a4.86,4.86,0,1,0-3.64-9l-54.1,22.07a4.86,4.86,0,1,1-3.64-9l41.08-16.6,0.21-.14,8.27-3.59a4.86,4.86,0,0,0-3.64-9l-36.07,14.78a4.86,4.86,0,1,1-3.64-9l54.6-22.42a4.86,4.86,0,0,0-4.4-8.62l-40.29,16.64a4.86,4.86,0,0,1-3.64-9l27-11.21a4.86,4.86,0,1,0-3.64-9l-22.54,9.36L166.37,271a4.86,4.86,0,0,1-4.82-8.33l22.29-9c0.23-.09.46-0.21,0.68-0.32l27.85-11.5a4.86,4.86,0,1,0-3.64-9L173,247.41A148.71,148.71,0,0,0,284.2,494.86h1.35Z"/>
              <path class="cls-9" d="M223.62,216.19a4.82,4.82,0,0,0,1.6-6.59,148.62,148.62,0,0,0-32.43,19.25Z"/>
            </g>
          </g>
        </g>
        <g>
          <circle class="cls-10" cx="123.97" cy="162.05" r="31.74"/>
          <g>
            <circle class="cls-5" cx="123.97" cy="162.05" r="32.22"/>
            <path class="cls-9" d="M66.79,179.17c-5.94,0-10.83-.7-11.34-2.94-0.81-3.5,9.66-8.34,18.59-11.79,12.48-4.81,29.4-9.79,47.64-14s35.63-7.2,49-8.36c9.53-.83,21.06-1.09,21.87,2.41s-9.66,8.34-18.59,11.79c-12.48,4.81-29.4,9.79-47.64,14s-35.63,7.2-49,8.36C73.87,178.94,70.16,179.17,66.79,179.17ZM181.2,142.11c-2.75,0-6.2.15-10.53,0.53-13.3,1.16-30.66,4.13-48.87,8.35s-35.11,9.19-47.57,14C57,171.63,55.74,175,56,176.1s2.86,3.58,21.26,2c13.3-1.16,30.66-4.13,48.87-8.35s35.11-9.19,47.57-14c17.24-6.65,18.49-10,18.23-11.12C191.74,143.74,190.17,142.11,181.2,142.11Zm-109,35.31c-5.4,0-9.84-.64-10.32-2.68-0.74-3.19,8.75-7.58,16.85-10.7,11.3-4.36,26.63-8.87,43.15-12.7s32.27-6.52,44.34-7.57c8.64-.76,19.1-1,19.84,2.2h0c0.74,3.19-8.75,7.58-16.85,10.7-11.3,4.36-26.63,8.87-43.15,12.7s-32.27,6.52-44.34,7.57C78.6,177.22,75.25,177.42,72.2,177.42Zm103.45-33.55c-2.67,0-5.82.15-9.38,0.46-12,1.05-27.76,3.74-44.26,7.56s-31.79,8.32-43.07,12.67c-10.82,4.17-17,7.92-16.49,10s7.68,2.77,19.23,1.76c12-1.05,27.76-3.74,44.26-7.56s31.79-8.32,43.07-12.67c10.82-4.17,17-7.92,16.49-10h0C185.15,144.64,181.62,143.87,175.65,143.87Zm-98.53,32c-5.51,0-9-.74-9.4-2.45-1.19-5.13,26.7-14.82,54.35-21.22a306.3,306.3,0,0,1,40.15-6.86c7.84-.69,17.32-0.89,18,2h0c0.67,2.91-7.93,6.89-15.27,9.72a306.35,306.35,0,0,1-39.08,11.5C107.4,172.82,88.19,175.83,77.12,175.83Zm93.67-30.38c-2.42,0-5.28.14-8.52,0.42a305.74,305.74,0,0,0-40.07,6.85c-33.31,7.72-54.78,16.85-53.92,20.53s24.15,2.45,57.46-5.27a305.72,305.72,0,0,0,39-11.47c9.78-3.77,15.36-7.16,14.92-9.06h0C179.36,146.14,176.17,145.45,170.79,145.45ZM81.56,174.39c-5,0-8.2-.68-8.56-2.23-1.08-4.66,24.19-13.45,49.24-19.25a277.43,277.43,0,0,1,36.37-6.21c7.11-.62,15.71-0.81,16.32,1.85h0c0.61,2.65-7.19,6.27-13.85,8.84a277.44,277.44,0,0,1-35.39,10.41C109,171.67,91.6,174.39,81.56,174.39Zm84.84-27.51c-2,0-4.56.11-7.74,0.39a276.81,276.81,0,0,0-36.29,6.2c-30.15,7-49.58,15.24-48.81,18.56s21.85,2.19,52-4.79a276.8,276.8,0,0,0,35.32-10.39c13.11-5.06,13.64-7.53,13.5-8.17h0C174.26,148.18,173.29,146.88,166.4,146.88Z"/>
            <path class="cls-5" d="M115.76,166l19.07-5.63,20.25-6.66A32.22,32.22,0,0,0,92.74,170Z"/>
            <path class="cls-11" d="M124.81,179.71a41.85,41.85,0,0,1-27.27.5A32.22,32.22,0,0,0,152.07,146,42,42,0,0,1,124.81,179.71Z"/>
          </g>
        </g>
      </g>
    </g>
  </g>
</svg>
